<?xml version="1.0" encoding="UTF-8" standalone="no"?>
<svg
   xmlns:dc="http://purl.org/dc/elements/1.1/"
   xmlns:cc="http://creativecommons.org/ns#"
   xmlns:rdf="http://www.w3.org/1999/02/22-rdf-syntax-ns#"
   xmlns:svg="http://www.w3.org/2000/svg"
   xmlns="http://www.w3.org/2000/svg"
   xmlns:sodipodi="http://sodipodi.sourceforge.net/DTD/sodipodi-0.dtd"
   xmlns:inkscape="http://www.inkscape.org/namespaces/inkscape"
   width="210mm"
   height="295mm"
   viewBox="0 0 210 295"
   version="1.1"
   preserveAspectRatio="xMidYMid meet"
   id="svg9"
   sodipodi:docname="ActivatorTestModule_box_part2.svg"
   inkscape:version="0.92.1 r15371">
  <metadata
     id="metadata15">
    <rdf:RDF>
      <cc:Work
         rdf:about="">
        <dc:format>image/svg+xml</dc:format>
        <dc:type
           rdf:resource="http://purl.org/dc/dcmitype/StillImage" />
        <dc:title />
      </cc:Work>
    </rdf:RDF>
  </metadata>
  <defs
     id="defs13" />
  <sodipodi:namedview
     pagecolor="#ffffff"
     bordercolor="#666666"
     borderopacity="1"
     objecttolerance="10"
     gridtolerance="10"
     guidetolerance="10"
     inkscape:pageopacity="0"
     inkscape:pageshadow="2"
     inkscape:window-width="1920"
     inkscape:window-height="1017"
     id="namedview11"
     showgrid="false"
     inkscape:zoom="0.7027995"
     inkscape:cx="657.54889"
     inkscape:cy="519.08574"
     inkscape:window-x="-8"
     inkscape:window-y="-8"
     inkscape:window-maximized="1"
     inkscape:current-layer="svg9"
     inkscape:measure-start="1116.63,351.591"
     inkscape:measure-end="1320.91,351.591"
     inkscape:document-units="mm" />
  <path
     style="font-size:medium;vector-effect:non-scaling-stroke;fill:none;fill-rule:evenodd;stroke:#ff0000;stroke-width:0.1;stroke-linecap:round"
     id="right_outsideCutPath"
     d="m 11.665546,57.316664 v 16 H 8.6655456 v 18 h 3.0000004 v 15.999996 h 24 v -3 h 18 v 3 h 18 v -3 h 18 v 3 h 18.000004 v -3 h 18 v 3 h 18 v -3 h 18 v 3 h 18 6 V 91.316664 h 3 v -18 h -3 v -16 h -24 v 3 h -18 v -3 h -18 v 3 h -18 v -3 H 89.665546 v 3 h -18 v -3 h -18 v 3 h -18 v -3 h -18 z"
     inkscape:connector-curvature="0" />
  <g
     id="g4782"
     transform="rotate(-90,-55.633893,53.65056)">
    <path
       inkscape:connector-curvature="0"
       d="m -57.183336,297.95 h 16 v -3 h 18 v 3 h 16.0000024 v -27 h -3.0000004 v -18 h 3.0000004 v -18 h -3.0000004 v -18 h 3.0000004 v -18 h -3.0000004 v -18 h 3.0000004 v -18 h -3.0000004 v -18 h 3.0000004 v -18 -9 H -23.183336 v 3 h -18 v -3 h -16 v 27 h 3 v 18 h -3 v 18 h 3 v 18 h -3 v 18 h 3 v 18 h -3 v 18 h 3 v 18 h -3 v 18 z"
       id="back_outsideCutPath"
       style="font-size:medium;vector-effect:non-scaling-stroke;fill:none;fill-rule:evenodd;stroke:#ff0000;stroke-width:0.1;stroke-linecap:round" />
    <rect
       y="199.02516"
       x="-41.15818"
       height="2.9496872"
       width="17.949688"
       id="rect4648-29"
       style="fill:none;fill-opacity:1;stroke:#0000ff;stroke-width:0.05031269;stroke-miterlimit:4;stroke-dasharray:none;stroke-opacity:1" />
  </g>
  <g
     id="g4715"
     transform="translate(-223.85117,-7.7637254)">
    <path
       inkscape:connector-curvature="0"
       d="m 235.51672,120.95 v 24 h -3 v 18 h 3 v 18 h -3 v 18 h 3 v 18 h -3 v 18 h 3 v 18 h -3 v 18 h 3 v 18 6 h 24 v 3 h 18 v -3 h 18 v 3 h 18 v -3 h 18 v 3 h 18 v -3 h 18 v 3 h 18 v -3 h 18 6 v -24 h 3 v -18 h -3 v -18 h 3 v -18 h -3 v -18 h 3 v -18 h -3 v -18 h 3 v -18 h -3 v -18 -6 h -24 v -3 h -18 v 3 h -18 v -3 h -18 v 3 h -18 v -3 h -18 v 3 h -18 v -3 h -18 v 3 h -18 z"
       id="top_outsideCutPath-3"
       style="font-size:medium;vector-effect:non-scaling-stroke;fill:none;fill-rule:evenodd;stroke:#ff0000;stroke-width:0.1;stroke-linecap:round;stroke-miterlimit:4;stroke-dasharray:none" />
    <rect
       y="199.02516"
       x="277.49188"
       height="2.9496872"
       width="17.949688"
       id="rect4648-25"
       style="fill:none;fill-opacity:1;stroke:#0000ff;stroke-width:0.05031269;stroke-miterlimit:4;stroke-dasharray:none;stroke-opacity:1" />
    <rect
       y="199.02516"
       x="349.49188"
       height="2.9496872"
       width="17.949688"
       id="rect4648-2-9"
       style="fill:none;fill-opacity:1;stroke:#0000ff;stroke-width:0.05031269;stroke-miterlimit:4;stroke-dasharray:none;stroke-opacity:1" />
    <rect
       y="198.95"
       x="385.49573"
       height="2.9419689"
       width="23.941969"
       id="rect4648-4-3"
       style="fill:none;fill-opacity:1;stroke:#0000ff;stroke-width:0.058031;stroke-miterlimit:4;stroke-dasharray:none;stroke-opacity:1" />
    <rect
       y="198.95"
       x="235.49574"
       height="2.9419692"
       width="23.941969"
       id="rect4648-4-4-1"
       style="fill:none;fill-opacity:1;stroke:#0000ff;stroke-width:0.058031;stroke-miterlimit:4;stroke-dasharray:none;stroke-opacity:1" />
  </g>
</svg>
