<?xml version="1.0" encoding="UTF-8" standalone="no"?>
<!-- Created with Inkscape (http://www.inkscape.org/) -->

<svg
   xmlns:dc="http://purl.org/dc/elements/1.1/"
   xmlns:cc="http://creativecommons.org/ns#"
   xmlns:rdf="http://www.w3.org/1999/02/22-rdf-syntax-ns#"
   xmlns:svg="http://www.w3.org/2000/svg"
   xmlns="http://www.w3.org/2000/svg"
   xmlns:sodipodi="http://sodipodi.sourceforge.net/DTD/sodipodi-0.dtd"
   xmlns:inkscape="http://www.inkscape.org/namespaces/inkscape"
   width="297mm"
   height="210mm"
   viewBox="0 0 297 210"
   version="1.1"
   id="svg4953"
   inkscape:version="0.92.1 r15371"
   sodipodi:docname="ControllerTestModule_top_bottom.svg">
  <defs
     id="defs4947" />
  <sodipodi:namedview
     id="base"
     pagecolor="#ffffff"
     bordercolor="#666666"
     borderopacity="1.0"
     inkscape:pageopacity="0.0"
     inkscape:pageshadow="2"
     inkscape:zoom="0.7"
     inkscape:cx="433.98384"
     inkscape:cy="411.11424"
     inkscape:document-units="mm"
     inkscape:current-layer="layer1"
     showgrid="false"
     inkscape:window-width="1920"
     inkscape:window-height="1017"
     inkscape:window-x="-8"
     inkscape:window-y="-8"
     inkscape:window-maximized="1" />
  <metadata
     id="metadata4950">
    <rdf:RDF>
      <cc:Work
         rdf:about="">
        <dc:format>image/svg+xml</dc:format>
        <dc:type
           rdf:resource="http://purl.org/dc/dcmitype/StillImage" />
        <dc:title />
      </cc:Work>
    </rdf:RDF>
  </metadata>
  <g
     inkscape:label="Calque 1"
     inkscape:groupmode="layer"
     id="layer1"
     transform="translate(0,-87)">
    <path
       inkscape:connector-curvature="0"
       style="font-size:medium;vector-effect:non-scaling-stroke;fill:none;fill-rule:evenodd;stroke:#ff0000;stroke-width:0.5;stroke-linecap:round;stroke-miterlimit:4;stroke-dasharray:none;stroke-opacity:1"
       id="bottom_outsideCutPath"
       d="m 131.01095,139.74999 v 14 h -3 V 171.75 h 3 v 18 h -3 v 18 h 3 v 18 h -3 v 18 h 3 v 18 h -3 v 18 h 3 v 14 h 12 v 3 h 18 v -3 h 18 v 3 h 18 v -3 h 18 v 3 h 18.00001 v -3 h 11.99999 v -14 h 3 v -18 h -3 v -18 h 3 v -18 h -3 v -18 h 3 v -18 h -3 v -18 h 3 v -18.00001 h -3 v -14 h -11.99999 v -3 h -18.00001 v 3 h -18 v -3 h -18 v 3 h -18 v -3 h -18 v 3 z" />
    <path
       inkscape:connector-curvature="0"
       style="font-size:medium;vector-effect:non-scaling-stroke;fill:none;fill-rule:evenodd;stroke:#ff0000;stroke-width:0.5;stroke-linecap:round;stroke-miterlimit:4;stroke-dasharray:none;stroke-opacity:1"
       id="top_outsideCutPath"
       d="m 3.427748,139.74903 -1.244e-4,14 -3.0000026,3.5e-4 -2.4562e-4,18 2.99999262,-3.6e-4 -2.455e-4,18.00001 -2.9999927,3.6e-4 -2.4557e-4,18.00001 3.00000267,-3.6e-4 -2.456e-4,18 -3.00000267,3.6e-4 -2.456e-4,18 3.00000267,-3.6e-4 -2.456e-4,18 -3.00000267,3.6e-4 -2.456e-4,18 2.99999267,-3.6e-4 -1.244e-4,14.00001 11.9999849,8e-5 -4.6e-5,2.99999 18.000003,1.8e-4 4.5e-5,-3 18.000003,1.7e-4 -4.6e-5,3.00001 17.999992,1.7e-4 4.6e-5,-3 17.999968,1.8e-4 3.54e-4,3 17.999996,1.7e-4 -3.5e-4,-2.99999 12,8e-5 1.2e-4,-14 2.99999,-3.5e-4 2.7e-4,-17.99999 -2.99999,3.5e-4 2.8e-4,-18 2.99999,-3.6e-4 2.8e-4,-18 -3.00001,3.6e-4 2.7e-4,-18 3.00001,-3.6e-4 2.8e-4,-18 -3,3.6e-4 2.7e-4,-18 3,-3.6e-4 2.8e-4,-18 -2.99999,3.6e-4 1.1e-4,-14.00001 -11.99999,-1.8e-4 -3.6e-4,-3 -17.999996,-2.8e-4 3.54e-4,2.99999 -17.999963,-2.7e-4 4.6e-5,-3 -18.000003,-2.7e-4 -4.5e-5,3 -17.999992,-2.8e-4 4.6e-5,-3 -18.000003,-2.7e-4 -4.6e-5,3.00001 z" />
    <path
       style="color:#000000;font-style:normal;font-variant:normal;font-weight:normal;font-stretch:normal;font-size:medium;line-height:normal;font-family:sans-serif;font-variant-ligatures:normal;font-variant-position:normal;font-variant-caps:normal;font-variant-numeric:normal;font-variant-alternates:normal;font-feature-settings:normal;text-indent:0;text-align:start;text-decoration:none;text-decoration-line:none;text-decoration-style:solid;text-decoration-color:#000000;letter-spacing:normal;word-spacing:normal;text-transform:none;writing-mode:lr-tb;direction:ltr;text-orientation:mixed;dominant-baseline:auto;baseline-shift:baseline;text-anchor:start;white-space:normal;shape-padding:0;clip-rule:nonzero;display:inline;overflow:visible;visibility:visible;opacity:1;isolation:auto;mix-blend-mode:normal;color-interpolation:sRGB;color-interpolation-filters:linearRGB;solid-color:#000000;solid-opacity:1;vector-effect:none;fill:#0000ff;fill-opacity:1;fill-rule:nonzero;stroke:none;stroke-width:0.23729376;stroke-linecap:butt;stroke-linejoin:miter;stroke-miterlimit:4;stroke-dasharray:none;stroke-dashoffset:0;stroke-opacity:1;color-rendering:auto;image-rendering:auto;shape-rendering:auto;text-rendering:auto;enable-background:accumulate"
       d="m 63.395479,143.78315 -9.2e-5,0.11913 -7.94e-4,69.88087 49.999957,5.8e-4 7.9e-4,-70 z m 0.236315,0.23633 49.525346,5.7e-4 -8e-4,69.52539 -49.525334,-5.7e-4 z"
       id="rect4494-2-7"
       inkscape:connector-curvature="0" />
    <g
       aria-label="Touch Inputs"
       style="font-style:normal;font-weight:normal;font-size:10.58333397px;line-height:1.25;font-family:sans-serif;letter-spacing:0px;word-spacing:0px;fill:#000000;fill-opacity:1;stroke:none;stroke-width:0.26458335"
       id="text4583-9"
       transform="rotate(6.5400343e-4,2278008.3,-25032182)">
      <path
         d="m 356.55469,173.4941 h 3.48093 v 0.46853 h -1.46072 v 3.64629 h -0.55949 v -3.64629 h -1.46072 z"
         style="font-size:5.64444447px;fill:#0000ff;stroke-width:0.26458335"
         id="path4607"
         inkscape:connector-curvature="0" />
      <path
         d="m 360.79078,174.87765 q -0.4079,0 -0.64492,0.3197 -0.23702,0.31695 -0.23702,0.87092 0,0.55397 0.23426,0.87368 0.23703,0.31695 0.64768,0.31695 0.40514,0 0.64217,-0.31971 0.23702,-0.3197 0.23702,-0.87092 0,-0.54846 -0.23702,-0.86816 -0.23703,-0.32246 -0.64217,-0.32246 z m 0,-0.42995 q 0.66146,0 1.03904,0.42995 0.37758,0.42994 0.37758,1.19062 0,0.75792 -0.37758,1.19063 -0.37758,0.42994 -1.03904,0.42994 -0.66421,0 -1.0418,-0.42994 -0.37482,-0.43271 -0.37482,-1.19063 0,-0.76068 0.37482,-1.19062 0.37759,-0.42995 1.0418,-0.42995 z"
         style="font-size:5.64444447px;fill:#0000ff;stroke-width:0.26458335"
         id="path4609"
         inkscape:connector-curvature="0" />
      <path
         d="m 362.99289,176.39073 v -1.86862 H 363.5 v 1.84933 q 0,0.43822 0.17088,0.6587 0.17088,0.21773 0.51263,0.21773 0.41066,0 0.64768,-0.26183 0.23978,-0.26182 0.23978,-0.71382 v -1.75011 h 0.50712 v 3.08681 h -0.50712 v -0.47405 q -0.18466,0.28112 -0.42995,0.41893 -0.24254,0.13504 -0.565,0.13504 -0.53192,0 -0.80753,-0.33073 -0.2756,-0.33072 -0.2756,-0.96738 z m 1.27606,-1.94303 z"
         style="font-size:5.64444447px;fill:#0000ff;stroke-width:0.26458335"
         id="path4611"
         inkscape:connector-curvature="0" />
      <path
         d="m 368.84955,174.64062 v 0.47405 q -0.21498,-0.11851 -0.43271,-0.17639 -0.21497,-0.0606 -0.43546,-0.0606 -0.49333,0 -0.76619,0.31419 -0.27285,0.31143 -0.27285,0.87643 0,0.565 0.27285,0.87919 0.27286,0.31144 0.76619,0.31144 0.22049,0 0.43546,-0.0579 0.21773,-0.0606 0.43271,-0.17915 v 0.46854 q -0.21222,0.0992 -0.44097,0.14882 -0.226,0.0496 -0.48232,0.0496 -0.69728,0 -1.10794,-0.43821 -0.41066,-0.43822 -0.41066,-1.18236 0,-0.75516 0.41342,-1.18787 0.41616,-0.4327 1.13826,-0.4327 0.23426,0 0.4575,0.0496 0.22325,0.0469 0.43271,0.14331 z"
         style="font-size:5.64444447px;fill:#0000ff;stroke-width:0.26458335"
         id="path4613"
         inkscape:connector-curvature="0" />
      <path
         d="m 372.30291,175.74581 v 1.86311 h -0.50712 v -1.84657 q 0,-0.43822 -0.17087,-0.65595 -0.17088,-0.21773 -0.51263,-0.21773 -0.41066,0 -0.64768,0.26183 -0.23702,0.26182 -0.23702,0.71382 v 1.7446 h -0.50988 v -4.28846 h 0.50988 v 1.68121 q 0.1819,-0.27836 0.42719,-0.41617 0.24805,-0.1378 0.57051,-0.1378 0.53192,0 0.80477,0.33073 0.27285,0.32797 0.27285,0.96738 z"
         style="font-size:5.64444447px;fill:#0000ff;stroke-width:0.26458335"
         id="path4615"
         inkscape:connector-curvature="0" />
      <path
         d="m 375.13892,173.4941 h 0.55672 v 4.11482 h -0.55672 z"
         style="font-size:5.64444447px;fill:#0000ff;stroke-width:0.26458335"
         id="path4617"
         inkscape:connector-curvature="0" />
      <path
         d="m 379.34744,175.74581 v 1.86311 h -0.50712 v -1.84657 q 0,-0.43822 -0.17087,-0.65595 -0.17088,-0.21773 -0.51263,-0.21773 -0.41066,0 -0.64768,0.26183 -0.23702,0.26182 -0.23702,0.71382 v 1.7446 h -0.50988 v -3.08681 h 0.50988 v 0.47956 q 0.1819,-0.27836 0.42719,-0.41617 0.24805,-0.1378 0.57051,-0.1378 0.53192,0 0.80477,0.33073 0.27285,0.32797 0.27285,0.96738 z"
         style="font-size:5.64444447px;fill:#0000ff;stroke-width:0.26458335"
         id="path4620"
         inkscape:connector-curvature="0" />
      <path
         d="m 380.85502,177.1459 v 1.63711 h -0.50988 v -4.2609 h 0.50988 v 0.46853 q 0.15985,-0.2756 0.40238,-0.40789 0.24529,-0.13505 0.58429,-0.13505 0.56224,0 0.91226,0.44648 0.35278,0.44649 0.35278,1.17409 0,0.7276 -0.35278,1.17409 -0.35002,0.44648 -0.91226,0.44648 -0.339,0 -0.58429,-0.13229 -0.24253,-0.13505 -0.40238,-0.41065 z m 1.7253,-1.07763 q 0,-0.55948 -0.23151,-0.87643 -0.22875,-0.31971 -0.63114,-0.31971 -0.40239,0 -0.6339,0.31971 -0.22875,0.31695 -0.22875,0.87643 0,0.55948 0.22875,0.87919 0.23151,0.31695 0.6339,0.31695 0.40239,0 0.63114,-0.31695 0.23151,-0.31971 0.23151,-0.87919 z"
         style="font-size:5.64444447px;fill:#0000ff;stroke-width:0.26458335"
         id="path4622"
         inkscape:connector-curvature="0" />
      <path
         d="m 383.89497,176.39073 v -1.86862 h 0.50712 v 1.84933 q 0,0.43822 0.17087,0.6587 0.17088,0.21773 0.51264,0.21773 0.41065,0 0.64767,-0.26183 0.23978,-0.26182 0.23978,-0.71382 v -1.75011 h 0.50712 v 3.08681 h -0.50712 v -0.47405 q -0.18466,0.28112 -0.42995,0.41893 -0.24253,0.13504 -0.56499,0.13504 -0.53192,0 -0.80753,-0.33073 -0.27561,-0.33072 -0.27561,-0.96738 z m 1.27606,-1.94303 z"
         style="font-size:5.64444447px;fill:#0000ff;stroke-width:0.26458335"
         id="path4624"
         inkscape:connector-curvature="0" />
      <path
         d="m 388.03184,173.64568 v 0.87643 h 1.04455 v 0.39412 h -1.04455 v 1.6757 q 0,0.37758 0.10198,0.48506 0.10473,0.10749 0.42168,0.10749 h 0.52089 v 0.42444 h -0.52089 q -0.58705,0 -0.81029,-0.21773 -0.22324,-0.22049 -0.22324,-0.79926 v -1.6757 h -0.37207 v -0.39412 h 0.37207 v -0.87643 z"
         style="font-size:5.64444447px;fill:#0000ff;stroke-width:0.26458335"
         id="path4626"
         inkscape:connector-curvature="0" />
      <path
         d="m 391.71396,174.61306 v 0.47956 q -0.21498,-0.11024 -0.44649,-0.16537 -0.23151,-0.0551 -0.47956,-0.0551 -0.37758,0 -0.56775,0.11576 -0.18741,0.11575 -0.18741,0.34726 0,0.17639 0.13505,0.27837 0.13505,0.0992 0.54294,0.19017 l 0.17364,0.0386 q 0.54019,0.11576 0.76619,0.32798 0.22875,0.20946 0.22875,0.58704 0,0.42995 -0.34175,0.68075 -0.339,0.2508 -0.93431,0.2508 -0.24805,0 -0.51814,-0.0496 -0.26734,-0.0469 -0.565,-0.14331 v -0.52366 q 0.28112,0.14608 0.55397,0.22049 0.27285,0.0717 0.54019,0.0717 0.35829,0 0.55122,-0.12127 0.19292,-0.12402 0.19292,-0.34727 0,-0.2067 -0.14056,-0.31694 -0.1378,-0.11025 -0.60909,-0.21222 l -0.17639,-0.0413 q -0.47129,-0.0992 -0.68075,-0.30317 -0.20946,-0.20671 -0.20946,-0.565 0,-0.43546 0.30868,-0.67248 0.30868,-0.23702 0.87643,-0.23702 0.28112,0 0.52917,0.0413 0.24804,0.0413 0.45751,0.12402 z"
         style="font-size:5.64444447px;fill:#0000ff;stroke-width:0.26458335"
         id="path4628"
         inkscape:connector-curvature="0" />
    </g>
    <g
       transform="rotate(-89.826381,90.382213,206.84451)"
       id="g6890">
      <path
         inkscape:connector-curvature="0"
         id="rect4494-28"
         d="m 153.19238,123.66702 -0.11913,3.6e-4 -69.880548,0.21095 0.150941,49.99977 69.999677,-0.21131 z m -0.23561,0.23703 0.14951,49.52516 -69.525076,0.20989 -0.149507,-49.52517 z"
         style="color:#000000;font-style:normal;font-variant:normal;font-weight:normal;font-stretch:normal;font-size:medium;line-height:normal;font-family:sans-serif;font-variant-ligatures:normal;font-variant-position:normal;font-variant-caps:normal;font-variant-numeric:normal;font-variant-alternates:normal;font-feature-settings:normal;text-indent:0;text-align:start;text-decoration:none;text-decoration-line:none;text-decoration-style:solid;text-decoration-color:#000000;letter-spacing:normal;word-spacing:normal;text-transform:none;writing-mode:lr-tb;direction:ltr;text-orientation:mixed;dominant-baseline:auto;baseline-shift:baseline;text-anchor:start;white-space:normal;shape-padding:0;clip-rule:nonzero;display:inline;overflow:visible;visibility:visible;opacity:1;isolation:auto;mix-blend-mode:normal;color-interpolation:sRGB;color-interpolation-filters:linearRGB;solid-color:#000000;solid-opacity:1;vector-effect:none;fill:#0000ff;fill-opacity:1;fill-rule:nonzero;stroke:none;stroke-width:0.23729376;stroke-linecap:butt;stroke-linejoin:miter;stroke-miterlimit:4;stroke-dasharray:none;stroke-dashoffset:0;stroke-opacity:1;color-rendering:auto;image-rendering:auto;shape-rendering:auto;text-rendering:auto;enable-background:accumulate" />
      <g
         transform="rotate(89.827035,246.33301,76.500852)"
         id="text4583"
         style="font-style:normal;font-weight:normal;font-size:10.58333397px;line-height:1.25;font-family:sans-serif;letter-spacing:0px;word-spacing:0px;fill:#000000;fill-opacity:1;stroke:none;stroke-width:0.26458335"
         aria-label="Digital Inputs">
        <path
           inkscape:connector-curvature="0"
           id="path4542"
           style="font-size:5.64444447px;fill:#0000ff;stroke-width:0.26458335"
           d="m 300.3549,173.9516 v 3.19981 h 0.67248 q 0.85163,0 1.24575,-0.38585 0.39687,-0.38585 0.39687,-1.21819 0,-0.82682 -0.39687,-1.20992 -0.39412,-0.38585 -1.24575,-0.38585 z m -0.55673,-0.4575 h 1.14377 q 1.19614,0 1.75563,0.49885 0.55948,0.49609 0.55948,1.55442 0,1.06385 -0.56224,1.5627 -0.56224,0.49885 -1.75287,0.49885 h -1.14377 z" />
        <path
           inkscape:connector-curvature="0"
           id="path4544"
           style="font-size:5.64444447px;fill:#0000ff;stroke-width:0.26458335"
           d="m 304.1197,174.52211 h 0.50712 v 3.08681 h -0.50712 z m 0,-1.20165 h 0.50712 v 0.64217 h -0.50712 z" />
        <path
           inkscape:connector-curvature="0"
           id="path4546"
           style="font-size:5.64444447px;fill:#0000ff;stroke-width:0.26458335"
           d="m 307.71638,176.02969 q 0,-0.55122 -0.22875,-0.85439 -0.226,-0.30317 -0.63666,-0.30317 -0.4079,0 -0.63665,0.30317 -0.226,0.30317 -0.226,0.85439 0,0.54845 0.226,0.85162 0.22875,0.30317 0.63665,0.30317 0.41066,0 0.63666,-0.30317 0.22875,-0.30317 0.22875,-0.85162 z m 0.50712,1.19613 q 0,0.78824 -0.35002,1.17134 -0.35002,0.38585 -1.07212,0.38585 -0.26734,0 -0.50436,-0.0413 -0.23702,-0.0386 -0.46026,-0.12126 v -0.49334 q 0.22324,0.12127 0.44097,0.17914 0.21773,0.0579 0.44373,0.0579 0.49885,0 0.74689,-0.26183 0.24805,-0.25907 0.24805,-0.78548 v -0.2508 q -0.1571,0.27285 -0.40239,0.4079 -0.24529,0.13505 -0.58704,0.13505 -0.56775,0 -0.91502,-0.43271 -0.34726,-0.4327 -0.34726,-1.14652 0,-0.71658 0.34726,-1.14929 0.34727,-0.4327 0.91502,-0.4327 0.34175,0 0.58704,0.13505 0.24529,0.13504 0.40239,0.40789 v -0.46853 h 0.50712 z" />
        <path
           inkscape:connector-curvature="0"
           id="path4548"
           style="font-size:5.64444447px;fill:#0000ff;stroke-width:0.26458335"
           d="m 309.26805,174.52211 h 0.50712 v 3.08681 h -0.50712 z m 0,-1.20165 h 0.50712 v 0.64217 h -0.50712 z" />
        <path
           inkscape:connector-curvature="0"
           id="path4550"
           style="font-size:5.64444447px;fill:#0000ff;stroke-width:0.26458335"
           d="m 311.33511,173.64568 v 0.87643 h 1.04455 v 0.39412 h -1.04455 v 1.6757 q 0,0.37758 0.10197,0.48506 0.10473,0.10749 0.42168,0.10749 h 0.5209 v 0.42444 h -0.5209 q -0.58704,0 -0.81028,-0.21773 -0.22325,-0.22049 -0.22325,-0.79926 v -1.6757 h -0.37207 v -0.39412 h 0.37207 v -0.87643 z" />
        <path
           inkscape:connector-curvature="0"
           id="path4552"
           style="font-size:5.64444447px;fill:#0000ff;stroke-width:0.26458335"
           d="m 314.45223,176.05725 q -0.6146,0 -0.85163,0.14056 -0.23702,0.14056 -0.23702,0.47955 0,0.2701 0.17639,0.42995 0.17914,0.1571 0.48507,0.1571 0.42168,0 0.67524,-0.29766 0.25631,-0.30041 0.25631,-0.7965 v -0.113 z m 1.01148,-0.20947 v 1.76114 h -0.50712 v -0.46854 q -0.17363,0.28112 -0.4327,0.41617 -0.25907,0.13229 -0.6339,0.13229 -0.47404,0 -0.75516,-0.26458 -0.27837,-0.26734 -0.27837,-0.71382 0,-0.5209 0.34727,-0.78549 0.35002,-0.26458 1.0418,-0.26458 h 0.71106 v -0.0496 q 0,-0.35002 -0.23151,-0.54019 -0.22875,-0.19292 -0.64492,-0.19292 -0.26458,0 -0.51539,0.0634 -0.2508,0.0634 -0.48231,0.19016 v -0.46853 q 0.27836,-0.10749 0.54019,-0.15985 0.26183,-0.0551 0.50988,-0.0551 0.66972,0 1.00045,0.34726 0.33073,0.34727 0.33073,1.05282 z" />
        <path
           inkscape:connector-curvature="0"
           id="path4554"
           style="font-size:5.64444447px;fill:#0000ff;stroke-width:0.26458335"
           d="m 316.51102,173.32046 h 0.50712 v 4.28846 h -0.50712 z" />
        <path
           inkscape:connector-curvature="0"
           id="path4556"
           style="font-size:5.64444447px;fill:#0000ff;stroke-width:0.26458335"
           d="m 319.89548,173.4941 h 0.55673 v 4.11482 h -0.55673 z" />
        <path
           inkscape:connector-curvature="0"
           id="path4558"
           style="font-size:5.64444447px;fill:#0000ff;stroke-width:0.26458335"
           d="m 324.10401,175.74581 v 1.86311 h -0.50712 v -1.84657 q 0,-0.43822 -0.17087,-0.65595 -0.17088,-0.21773 -0.51263,-0.21773 -0.41066,0 -0.64768,0.26183 -0.23702,0.26182 -0.23702,0.71382 v 1.7446 h -0.50988 v -3.08681 h 0.50988 v 0.47956 q 0.1819,-0.27836 0.42719,-0.41617 0.24804,-0.1378 0.57051,-0.1378 0.53192,0 0.80477,0.33073 0.27285,0.32797 0.27285,0.96738 z" />
        <path
           inkscape:connector-curvature="0"
           id="path4560"
           style="font-size:5.64444447px;fill:#0000ff;stroke-width:0.26458335"
           d="m 325.61159,177.1459 v 1.63711 h -0.50988 v -4.2609 h 0.50988 v 0.46853 q 0.15985,-0.2756 0.40238,-0.40789 0.24529,-0.13505 0.58429,-0.13505 0.56224,0 0.91226,0.44648 0.35278,0.44649 0.35278,1.17409 0,0.7276 -0.35278,1.17409 -0.35002,0.44648 -0.91226,0.44648 -0.339,0 -0.58429,-0.13229 -0.24253,-0.13505 -0.40238,-0.41065 z m 1.7253,-1.07763 q 0,-0.55948 -0.23151,-0.87643 -0.22876,-0.31971 -0.63114,-0.31971 -0.40239,0 -0.6339,0.31971 -0.22875,0.31695 -0.22875,0.87643 0,0.55948 0.22875,0.87919 0.23151,0.31695 0.6339,0.31695 0.40238,0 0.63114,-0.31695 0.23151,-0.31971 0.23151,-0.87919 z" />
        <path
           inkscape:connector-curvature="0"
           id="path4562"
           style="font-size:5.64444447px;fill:#0000ff;stroke-width:0.26458335"
           d="m 328.65154,176.39073 v -1.86862 h 0.50712 v 1.84933 q 0,0.43822 0.17087,0.6587 0.17088,0.21773 0.51263,0.21773 0.41066,0 0.64768,-0.26183 0.23978,-0.26182 0.23978,-0.71382 v -1.75011 h 0.50712 v 3.08681 h -0.50712 v -0.47405 q -0.18466,0.28112 -0.42995,0.41893 -0.24253,0.13504 -0.56499,0.13504 -0.53193,0 -0.80754,-0.33073 -0.2756,-0.33072 -0.2756,-0.96738 z m 1.27606,-1.94303 z" />
        <path
           inkscape:connector-curvature="0"
           id="path4564"
           style="font-size:5.64444447px;fill:#0000ff;stroke-width:0.26458335"
           d="m 332.78841,173.64568 v 0.87643 h 1.04455 v 0.39412 h -1.04455 v 1.6757 q 0,0.37758 0.10197,0.48506 0.10473,0.10749 0.42168,0.10749 h 0.5209 v 0.42444 h -0.5209 q -0.58704,0 -0.81028,-0.21773 -0.22325,-0.22049 -0.22325,-0.79926 v -1.6757 h -0.37207 v -0.39412 h 0.37207 v -0.87643 z" />
        <path
           inkscape:connector-curvature="0"
           id="path4566"
           style="font-size:5.64444447px;fill:#0000ff;stroke-width:0.26458335"
           d="m 336.47053,174.61306 v 0.47956 q -0.21498,-0.11024 -0.44649,-0.16537 -0.23151,-0.0551 -0.47956,-0.0551 -0.37758,0 -0.56775,0.11576 -0.18741,0.11575 -0.18741,0.34726 0,0.17639 0.13505,0.27837 0.13504,0.0992 0.54294,0.19017 l 0.17364,0.0386 q 0.54019,0.11576 0.76619,0.32798 0.22875,0.20946 0.22875,0.58704 0,0.42995 -0.34175,0.68075 -0.339,0.2508 -0.93431,0.2508 -0.24805,0 -0.51815,-0.0496 -0.26734,-0.0469 -0.56499,-0.14331 v -0.52366 q 0.28112,0.14608 0.55397,0.22049 0.27285,0.0717 0.54019,0.0717 0.35829,0 0.55122,-0.12127 0.19292,-0.12402 0.19292,-0.34727 0,-0.2067 -0.14056,-0.31694 -0.1378,-0.11025 -0.60909,-0.21222 l -0.17639,-0.0413 q -0.47129,-0.0992 -0.68075,-0.30317 -0.20946,-0.20671 -0.20946,-0.565 0,-0.43546 0.30868,-0.67248 0.30868,-0.23702 0.87643,-0.23702 0.28112,0 0.52917,0.0413 0.24804,0.0413 0.45751,0.12402 z" />
      </g>
      <g
         transform="rotate(89.827035,246.33301,76.500852)"
         id="g4604">
        <circle
           style="fill:none;fill-opacity:1;stroke:#040000;stroke-width:0.03893216;stroke-miterlimit:4;stroke-dasharray:none;stroke-opacity:1"
           id="path4619-53"
           cx="305.21701"
           cy="223.45601"
           r="5.9805341" />
        <ellipse
           style="fill:none;fill-opacity:1;stroke:#040000;stroke-width:0.14875337;stroke-miterlimit:4;stroke-dasharray:none;stroke-opacity:1"
           id="path4621-1"
           cx="305.21701"
           cy="197.45601"
           rx="3.1256232"
           ry="3.1256235" />
        <circle
           style="fill:none;fill-opacity:1;stroke:#040000;stroke-width:0.03893216;stroke-miterlimit:4;stroke-dasharray:none;stroke-opacity:1"
           id="path4619-5-4"
           cx="331.21701"
           cy="223.45601"
           r="5.9805341" />
        <ellipse
           style="fill:none;fill-opacity:1;stroke:#040000;stroke-width:0.14875337;stroke-miterlimit:4;stroke-dasharray:none;stroke-opacity:1"
           id="path4621-1-4"
           cx="331.21701"
           cy="197.45601"
           rx="3.1256232"
           ry="3.1256235" />
      </g>
    </g>
    <g
       transform="rotate(-89.826381,90.382213,206.84451)"
       id="g6822">
      <path
         inkscape:connector-curvature="0"
         id="rect4494-2"
         d="m 77.361783,179.89619 -0.11914,3.6e-4 -69.8805408,0.21096 0.1509402,49.99977 69.9996806,-0.21132 z m -0.235614,0.23703 0.149508,49.52517 -69.5250738,0.20988 -0.1495074,-49.52516 z"
         style="color:#000000;font-style:normal;font-variant:normal;font-weight:normal;font-stretch:normal;font-size:medium;line-height:normal;font-family:sans-serif;font-variant-ligatures:normal;font-variant-position:normal;font-variant-caps:normal;font-variant-numeric:normal;font-variant-alternates:normal;font-feature-settings:normal;text-indent:0;text-align:start;text-decoration:none;text-decoration-line:none;text-decoration-style:solid;text-decoration-color:#000000;letter-spacing:normal;word-spacing:normal;text-transform:none;writing-mode:lr-tb;direction:ltr;text-orientation:mixed;dominant-baseline:auto;baseline-shift:baseline;text-anchor:start;white-space:normal;shape-padding:0;clip-rule:nonzero;display:inline;overflow:visible;visibility:visible;opacity:1;isolation:auto;mix-blend-mode:normal;color-interpolation:sRGB;color-interpolation-filters:linearRGB;solid-color:#000000;solid-opacity:1;vector-effect:none;fill:#0000ff;fill-opacity:1;fill-rule:nonzero;stroke:none;stroke-width:0.23729376;stroke-linecap:butt;stroke-linejoin:miter;stroke-miterlimit:4;stroke-dasharray:none;stroke-dashoffset:0;stroke-opacity:1;color-rendering:auto;image-rendering:auto;shape-rendering:auto;text-rendering:auto;enable-background:accumulate" />
      <g
         transform="rotate(89.827035,246.33301,76.500852)"
         id="text4583-4"
         style="font-style:normal;font-weight:normal;font-size:10.58333397px;line-height:1.25;font-family:sans-serif;letter-spacing:0px;word-spacing:0px;fill:#000000;fill-opacity:1;stroke:none;stroke-width:0.26458335"
         aria-label="Rotary Encoder">
        <path
           inkscape:connector-curvature="0"
           id="path4663"
           style="font-size:5.64444447px;fill:#0000ff;stroke-width:0.26458335"
           d="m 354.76876,251.67966 q 0.17915,0.0606 0.34727,0.25907 0.17087,0.19844 0.34175,0.54571 l 0.565,1.12448 h -0.59807 l -0.52641,-1.05558 q -0.20395,-0.41341 -0.39688,-0.54846 -0.19017,-0.13505 -0.5209,-0.13505 h -0.60633 v 1.73909 h -0.55673 v -4.11482 h 1.25677 q 0.70556,0 1.05282,0.2949 0.34727,0.2949 0.34727,0.89021 0,0.3886 -0.1819,0.64492 -0.17915,0.25632 -0.52366,0.35553 z m -1.39457,-1.72806 v 1.46072 h 0.70004 q 0.40239,0 0.60634,-0.18465 0.2067,-0.18742 0.2067,-0.54846 0,-0.36105 -0.2067,-0.54295 -0.20395,-0.18466 -0.60634,-0.18466 z" />
        <path
           inkscape:connector-curvature="0"
           id="path4665"
           style="font-size:5.64444447px;fill:#0000ff;stroke-width:0.26458335"
           d="m 357.66264,250.87765 q -0.4079,0 -0.64492,0.3197 -0.23702,0.31695 -0.23702,0.87092 0,0.55397 0.23426,0.87368 0.23703,0.31695 0.64768,0.31695 0.40515,0 0.64217,-0.31971 0.23702,-0.3197 0.23702,-0.87092 0,-0.54846 -0.23702,-0.86816 -0.23702,-0.32246 -0.64217,-0.32246 z m 0,-0.42995 q 0.66146,0 1.03904,0.42995 0.37759,0.42994 0.37759,1.19062 0,0.75792 -0.37759,1.19063 -0.37758,0.42994 -1.03904,0.42994 -0.66421,0 -1.04179,-0.42994 -0.37483,-0.43271 -0.37483,-1.19063 0,-0.76068 0.37483,-1.19062 0.37758,-0.42995 1.04179,-0.42995 z" />
        <path
           inkscape:connector-curvature="0"
           id="path4667"
           style="font-size:5.64444447px;fill:#0000ff;stroke-width:0.26458335"
           d="m 360.41872,249.64568 v 0.87643 h 1.04455 v 0.39412 h -1.04455 v 1.6757 q 0,0.37758 0.10197,0.48506 0.10473,0.10749 0.42168,0.10749 h 0.5209 v 0.42444 h -0.5209 q -0.58704,0 -0.81028,-0.21773 -0.22325,-0.22049 -0.22325,-0.79926 v -1.6757 h -0.37207 v -0.39412 h 0.37207 v -0.87643 z" />
        <path
           inkscape:connector-curvature="0"
           id="path4669"
           style="font-size:5.64444447px;fill:#0000ff;stroke-width:0.26458335"
           d="m 363.53584,252.05725 q -0.6146,0 -0.85163,0.14056 -0.23702,0.14056 -0.23702,0.47955 0,0.2701 0.17639,0.42995 0.17914,0.1571 0.48507,0.1571 0.42168,0 0.67524,-0.29766 0.25631,-0.30041 0.25631,-0.7965 v -0.113 z m 1.01148,-0.20947 v 1.76114 h -0.50712 v -0.46854 q -0.17363,0.28112 -0.4327,0.41617 -0.25907,0.13229 -0.6339,0.13229 -0.47404,0 -0.75516,-0.26458 -0.27837,-0.26734 -0.27837,-0.71382 0,-0.5209 0.34727,-0.78549 0.35002,-0.26458 1.0418,-0.26458 h 0.71106 v -0.0496 q 0,-0.35002 -0.23151,-0.54019 -0.22875,-0.19292 -0.64492,-0.19292 -0.26458,0 -0.51539,0.0634 -0.2508,0.0634 -0.48231,0.19016 v -0.46853 q 0.27836,-0.10749 0.54019,-0.15985 0.26183,-0.0551 0.50988,-0.0551 0.66972,0 1.00045,0.34726 0.33073,0.34727 0.33073,1.05282 z" />
        <path
           inkscape:connector-curvature="0"
           id="path4671"
           style="font-size:5.64444447px;fill:#0000ff;stroke-width:0.26458335"
           d="m 367.38332,250.99616 q -0.0854,-0.0496 -0.18741,-0.0717 -0.0992,-0.0248 -0.22049,-0.0248 -0.42994,0 -0.66145,0.28112 -0.22876,0.27837 -0.22876,0.80202 v 1.62609 h -0.50987 v -3.08681 h 0.50987 v 0.47956 q 0.15985,-0.28112 0.41617,-0.41617 0.25631,-0.1378 0.62287,-0.1378 0.0524,0 0.11576,0.008 0.0634,0.006 0.14056,0.0193 z" />
        <path
           inkscape:connector-curvature="0"
           id="path4673"
           style="font-size:5.64444447px;fill:#0000ff;stroke-width:0.26458335"
           d="m 369.20509,253.89555 q -0.21497,0.55121 -0.41892,0.71934 -0.20395,0.16812 -0.54571,0.16812 h -0.40514 v -0.42444 h 0.29766 q 0.20946,0 0.32521,-0.0992 0.11576,-0.0992 0.25632,-0.46853 l 0.0909,-0.23151 -1.2485,-3.0372 h 0.53743 l 0.96463,2.41432 0.96462,-2.41432 h 0.53744 z" />
        <path
           inkscape:connector-curvature="0"
           id="path4675"
           style="font-size:5.64444447px;fill:#0000ff;stroke-width:0.26458335"
           d="m 373.08013,249.4941 h 2.60174 v 0.46853 h -2.04501 v 1.21818 h 1.95957 v 0.46854 h -1.95957 v 1.49103 h 2.09462 v 0.46854 h -2.65135 z" />
        <path
           inkscape:connector-curvature="0"
           id="path4677"
           style="font-size:5.64444447px;fill:#0000ff;stroke-width:0.26458335"
           d="m 379.19587,251.74581 v 1.86311 h -0.50712 v -1.84657 q 0,-0.43822 -0.17088,-0.65595 -0.17087,-0.21773 -0.51263,-0.21773 -0.41065,0 -0.64768,0.26183 -0.23702,0.26182 -0.23702,0.71382 v 1.7446 h -0.50987 v -3.08681 h 0.50987 v 0.47956 q 0.1819,-0.27836 0.42719,-0.41617 0.24805,-0.1378 0.57051,-0.1378 0.53192,0 0.80478,0.33073 0.27285,0.32797 0.27285,0.96738 z" />
        <path
           inkscape:connector-curvature="0"
           id="path4679"
           style="font-size:5.64444447px;fill:#0000ff;stroke-width:0.26458335"
           d="m 382.43426,250.64062 v 0.47405 q -0.21498,-0.11851 -0.43271,-0.17639 -0.21497,-0.0606 -0.43546,-0.0606 -0.49333,0 -0.76619,0.31419 -0.27285,0.31143 -0.27285,0.87643 0,0.565 0.27285,0.87919 0.27286,0.31144 0.76619,0.31144 0.22049,0 0.43546,-0.0579 0.21773,-0.0606 0.43271,-0.17915 v 0.46854 q -0.21222,0.0992 -0.44098,0.14882 -0.22599,0.0496 -0.48231,0.0496 -0.69729,0 -1.10794,-0.43821 -0.41066,-0.43822 -0.41066,-1.18236 0,-0.75516 0.41341,-1.18787 0.41617,-0.4327 1.13826,-0.4327 0.23427,0 0.45751,0.0496 0.22325,0.0469 0.43271,0.14331 z" />
        <path
           inkscape:connector-curvature="0"
           id="path4681"
           style="font-size:5.64444447px;fill:#0000ff;stroke-width:0.26458335"
           d="m 384.51785,250.87765 q -0.4079,0 -0.64492,0.3197 -0.23702,0.31695 -0.23702,0.87092 0,0.55397 0.23426,0.87368 0.23703,0.31695 0.64768,0.31695 0.40514,0 0.64217,-0.31971 0.23702,-0.3197 0.23702,-0.87092 0,-0.54846 -0.23702,-0.86816 -0.23703,-0.32246 -0.64217,-0.32246 z m 0,-0.42995 q 0.66146,0 1.03904,0.42995 0.37758,0.42994 0.37758,1.19062 0,0.75792 -0.37758,1.19063 -0.37758,0.42994 -1.03904,0.42994 -0.66421,0 -1.0418,-0.42994 -0.37482,-0.43271 -0.37482,-1.19063 0,-0.76068 0.37482,-1.19062 0.37759,-0.42995 1.0418,-0.42995 z" />
        <path
           inkscape:connector-curvature="0"
           id="path4683"
           style="font-size:5.64444447px;fill:#0000ff;stroke-width:0.26458335"
           d="m 388.80355,250.99064 v -1.67018 h 0.50712 v 4.28846 h -0.50712 v -0.46302 q -0.15985,0.2756 -0.40514,0.41065 -0.24254,0.13229 -0.58429,0.13229 -0.55949,0 -0.91226,-0.44648 -0.35002,-0.44649 -0.35002,-1.17409 0,-0.7276 0.35002,-1.17409 0.35277,-0.44648 0.91226,-0.44648 0.34175,0 0.58429,0.13505 0.24529,0.13229 0.40514,0.40789 z m -1.72806,1.07763 q 0,0.55948 0.22875,0.87919 0.23151,0.31695 0.6339,0.31695 0.40239,0 0.6339,-0.31695 0.23151,-0.31971 0.23151,-0.87919 0,-0.55948 -0.23151,-0.87643 -0.23151,-0.31971 -0.6339,-0.31971 -0.40239,0 -0.6339,0.31971 -0.22875,0.31695 -0.22875,0.87643 z" />
        <path
           inkscape:connector-curvature="0"
           id="path4685"
           style="font-size:5.64444447px;fill:#0000ff;stroke-width:0.26458335"
           d="m 392.99554,251.93873 v 0.24805 h -2.33164 q 0.0331,0.52366 0.3142,0.79926 0.28387,0.27286 0.78823,0.27286 0.29215,0 0.565,-0.0717 0.27561,-0.0717 0.5457,-0.21498 v 0.47956 q -0.27285,0.11576 -0.55948,0.17639 -0.28663,0.0606 -0.58153,0.0606 -0.73863,0 -1.17134,-0.42994 -0.42994,-0.42995 -0.42994,-1.16307 0,-0.75792 0.4079,-1.20165 0.41065,-0.44648 1.10518,-0.44648 0.62288,0 0.98392,0.40238 0.3638,0.39964 0.3638,1.08865 z m -0.50711,-0.14882 q -0.006,-0.41617 -0.23427,-0.66422 -0.226,-0.24804 -0.60083,-0.24804 -0.42443,0 -0.68075,0.23977 -0.25356,0.23978 -0.29214,0.67524 z" />
        <path
           inkscape:connector-curvature="0"
           id="path4687"
           style="font-size:5.64444447px;fill:#0000ff;stroke-width:0.26458335"
           d="m 395.61657,250.99616 q -0.0854,-0.0496 -0.18741,-0.0717 -0.0992,-0.0248 -0.22049,-0.0248 -0.42995,0 -0.66146,0.28112 -0.22875,0.27837 -0.22875,0.80202 v 1.62609 h -0.50987 v -3.08681 h 0.50987 v 0.47956 q 0.15985,-0.28112 0.41617,-0.41617 0.25631,-0.1378 0.62287,-0.1378 0.0524,0 0.11576,0.008 0.0634,0.006 0.14056,0.0193 z" />
      </g>
      <circle
         transform="rotate(89.827035)"
         r="3.4912307"
         cy="-38.114555"
         cx="205.12813"
         id="path4634"
         style="fill:none;fill-opacity:1;stroke:#040000;stroke-width:0.01753878;stroke-miterlimit:4;stroke-dasharray:none;stroke-opacity:1" />
    </g>
    <g
       transform="rotate(-89.826381,90.382213,206.84451)"
       id="g6714">
      <path
         inkscape:connector-curvature="0"
         id="rect4494"
         d="m 77.19273,123.89644 -0.11914,3.6e-4 -69.8805408,0.21096 0.1509402,49.99977 69.9996806,-0.21131 z m -0.235614,0.23704 0.149508,49.52516 -69.5250738,0.20989 -0.1495075,-49.52517 z"
         style="color:#000000;font-style:normal;font-variant:normal;font-weight:normal;font-stretch:normal;font-size:medium;line-height:normal;font-family:sans-serif;font-variant-ligatures:normal;font-variant-position:normal;font-variant-caps:normal;font-variant-numeric:normal;font-variant-alternates:normal;font-feature-settings:normal;text-indent:0;text-align:start;text-decoration:none;text-decoration-line:none;text-decoration-style:solid;text-decoration-color:#000000;letter-spacing:normal;word-spacing:normal;text-transform:none;writing-mode:lr-tb;direction:ltr;text-orientation:mixed;dominant-baseline:auto;baseline-shift:baseline;text-anchor:start;white-space:normal;shape-padding:0;clip-rule:nonzero;display:inline;overflow:visible;visibility:visible;opacity:1;isolation:auto;mix-blend-mode:normal;color-interpolation:sRGB;color-interpolation-filters:linearRGB;solid-color:#000000;solid-opacity:1;vector-effect:none;fill:#0000ff;fill-opacity:1;fill-rule:nonzero;stroke:none;stroke-width:0.23729376;stroke-linecap:butt;stroke-linejoin:miter;stroke-miterlimit:4;stroke-dasharray:none;stroke-dashoffset:0;stroke-opacity:1;color-rendering:auto;image-rendering:auto;shape-rendering:auto;text-rendering:auto;enable-background:accumulate" />
      <g
         transform="rotate(89.827035,246.33301,76.500852)"
         id="text4583-1"
         style="font-style:normal;font-weight:normal;font-size:10.58333397px;line-height:1.25;font-family:sans-serif;letter-spacing:0px;word-spacing:0px;fill:#000000;fill-opacity:1;stroke:none;stroke-width:0.26458335"
         aria-label="Analog Inputs">
        <path
           inkscape:connector-curvature="0"
           id="path4714"
           style="font-size:5.64444447px;fill:#0000ff;stroke-width:0.26458335"
           d="m 300.82757,250.04255 -0.75517,2.04777 h 1.51309 z m -0.31419,-0.54845 h 0.63114 l 1.56821,4.11482 h -0.57878 l -0.37483,-1.05558 h -1.85484 l -0.37482,1.05558 h -0.58705 z" />
        <path
           inkscape:connector-curvature="0"
           id="path4716"
           style="font-size:5.64444447px;fill:#0000ff;stroke-width:0.26458335"
           d="m 305.85465,251.74581 v 1.86311 h -0.50712 v -1.84657 q 0,-0.43822 -0.17087,-0.65595 -0.17088,-0.21773 -0.51263,-0.21773 -0.41066,0 -0.64768,0.26183 -0.23702,0.26182 -0.23702,0.71382 v 1.7446 h -0.50988 v -3.08681 h 0.50988 v 0.47956 q 0.1819,-0.27836 0.42719,-0.41617 0.24805,-0.1378 0.57051,-0.1378 0.53192,0 0.80477,0.33073 0.27285,0.32797 0.27285,0.96738 z" />
        <path
           inkscape:connector-curvature="0"
           id="path4718"
           style="font-size:5.64444447px;fill:#0000ff;stroke-width:0.26458335"
           d="m 308.27449,252.05725 q -0.61461,0 -0.85163,0.14056 -0.23702,0.14056 -0.23702,0.47955 0,0.2701 0.17639,0.42995 0.17914,0.1571 0.48507,0.1571 0.42168,0 0.67523,-0.29766 0.25632,-0.30041 0.25632,-0.7965 v -0.113 z m 1.01148,-0.20947 v 1.76114 h -0.50712 v -0.46854 q -0.17363,0.28112 -0.4327,0.41617 -0.25908,0.13229 -0.6339,0.13229 -0.47405,0 -0.75517,-0.26458 -0.27836,-0.26734 -0.27836,-0.71382 0,-0.5209 0.34726,-0.78549 0.35003,-0.26458 1.0418,-0.26458 h 0.71107 v -0.0496 q 0,-0.35002 -0.23151,-0.54019 -0.22876,-0.19292 -0.64492,-0.19292 -0.26459,0 -0.51539,0.0634 -0.2508,0.0634 -0.48231,0.19016 v -0.46853 q 0.27836,-0.10749 0.54019,-0.15985 0.26183,-0.0551 0.50987,-0.0551 0.66973,0 1.00046,0.34726 0.33073,0.34727 0.33073,1.05282 z" />
        <path
           inkscape:connector-curvature="0"
           id="path4720"
           style="font-size:5.64444447px;fill:#0000ff;stroke-width:0.26458335"
           d="m 310.33328,249.32046 h 0.50711 v 4.28846 h -0.50711 z" />
        <path
           inkscape:connector-curvature="0"
           id="path4722"
           style="font-size:5.64444447px;fill:#0000ff;stroke-width:0.26458335"
           d="m 313.09486,250.87765 q -0.40789,0 -0.64492,0.3197 -0.23702,0.31695 -0.23702,0.87092 0,0.55397 0.23427,0.87368 0.23702,0.31695 0.64767,0.31695 0.40515,0 0.64217,-0.31971 0.23702,-0.3197 0.23702,-0.87092 0,-0.54846 -0.23702,-0.86816 -0.23702,-0.32246 -0.64217,-0.32246 z m 0,-0.42995 q 0.66146,0 1.03905,0.42995 0.37758,0.42994 0.37758,1.19062 0,0.75792 -0.37758,1.19063 -0.37759,0.42994 -1.03905,0.42994 -0.66421,0 -1.04179,-0.42994 -0.37483,-0.43271 -0.37483,-1.19063 0,-0.76068 0.37483,-1.19062 0.37758,-0.42995 1.04179,-0.42995 z" />
        <path
           inkscape:connector-curvature="0"
           id="path4724"
           style="font-size:5.64444447px;fill:#0000ff;stroke-width:0.26458335"
           d="m 317.38056,252.02969 q 0,-0.55122 -0.22875,-0.85439 -0.226,-0.30317 -0.63665,-0.30317 -0.4079,0 -0.63666,0.30317 -0.226,0.30317 -0.226,0.85439 0,0.54845 0.226,0.85162 0.22876,0.30317 0.63666,0.30317 0.41065,0 0.63665,-0.30317 0.22875,-0.30317 0.22875,-0.85162 z m 0.50712,1.19613 q 0,0.78824 -0.35002,1.17134 -0.35002,0.38585 -1.07211,0.38585 -0.26734,0 -0.50437,-0.0413 -0.23702,-0.0386 -0.46026,-0.12126 v -0.49334 q 0.22324,0.12127 0.44097,0.17914 0.21773,0.0579 0.44373,0.0579 0.49885,0 0.7469,-0.26183 0.24804,-0.25907 0.24804,-0.78548 v -0.2508 q -0.15709,0.27285 -0.40238,0.4079 -0.24529,0.13505 -0.58705,0.13505 -0.56775,0 -0.91502,-0.43271 -0.34726,-0.4327 -0.34726,-1.14652 0,-0.71658 0.34726,-1.14929 0.34727,-0.4327 0.91502,-0.4327 0.34176,0 0.58705,0.13505 0.24529,0.13504 0.40238,0.40789 v -0.46853 h 0.50712 z" />
        <path
           inkscape:connector-curvature="0"
           id="path4726"
           style="font-size:5.64444447px;fill:#0000ff;stroke-width:0.26458335"
           d="m 320.75124,249.4941 h 0.55673 v 4.11482 h -0.55673 z" />
        <path
           inkscape:connector-curvature="0"
           id="path4728"
           style="font-size:5.64444447px;fill:#0000ff;stroke-width:0.26458335"
           d="m 324.95977,251.74581 v 1.86311 h -0.50711 v -1.84657 q 0,-0.43822 -0.17088,-0.65595 -0.17088,-0.21773 -0.51263,-0.21773 -0.41066,0 -0.64768,0.26183 -0.23702,0.26182 -0.23702,0.71382 v 1.7446 h -0.50988 v -3.08681 h 0.50988 v 0.47956 q 0.1819,-0.27836 0.42719,-0.41617 0.24805,-0.1378 0.57051,-0.1378 0.53192,0 0.80477,0.33073 0.27285,0.32797 0.27285,0.96738 z" />
        <path
           inkscape:connector-curvature="0"
           id="path4730"
           style="font-size:5.64444447px;fill:#0000ff;stroke-width:0.26458335"
           d="m 326.46735,253.1459 v 1.63711 h -0.50988 v -4.2609 h 0.50988 v 0.46853 q 0.15985,-0.2756 0.40238,-0.40789 0.2453,-0.13505 0.58429,-0.13505 0.56224,0 0.91226,0.44648 0.35278,0.44649 0.35278,1.17409 0,0.7276 -0.35278,1.17409 -0.35002,0.44648 -0.91226,0.44648 -0.33899,0 -0.58429,-0.13229 -0.24253,-0.13505 -0.40238,-0.41065 z m 1.7253,-1.07763 q 0,-0.55948 -0.23151,-0.87643 -0.22875,-0.31971 -0.63114,-0.31971 -0.40239,0 -0.6339,0.31971 -0.22875,0.31695 -0.22875,0.87643 0,0.55948 0.22875,0.87919 0.23151,0.31695 0.6339,0.31695 0.40239,0 0.63114,-0.31695 0.23151,-0.31971 0.23151,-0.87919 z" />
        <path
           inkscape:connector-curvature="0"
           id="path4732"
           style="font-size:5.64444447px;fill:#0000ff;stroke-width:0.26458335"
           d="m 329.5073,252.39073 v -1.86862 h 0.50712 v 1.84933 q 0,0.43822 0.17087,0.6587 0.17088,0.21773 0.51263,0.21773 0.41066,0 0.64768,-0.26183 0.23978,-0.26182 0.23978,-0.71382 v -1.75011 h 0.50712 v 3.08681 h -0.50712 v -0.47405 q -0.18466,0.28112 -0.42995,0.41893 -0.24253,0.13504 -0.56499,0.13504 -0.53193,0 -0.80753,-0.33073 -0.27561,-0.33072 -0.27561,-0.96738 z m 1.27606,-1.94303 z" />
        <path
           inkscape:connector-curvature="0"
           id="path4734"
           style="font-size:5.64444447px;fill:#0000ff;stroke-width:0.26458335"
           d="m 333.64417,249.64568 v 0.87643 h 1.04455 v 0.39412 h -1.04455 v 1.6757 q 0,0.37758 0.10197,0.48506 0.10474,0.10749 0.42168,0.10749 h 0.5209 v 0.42444 h -0.5209 q -0.58704,0 -0.81028,-0.21773 -0.22324,-0.22049 -0.22324,-0.79926 v -1.6757 h -0.37207 v -0.39412 h 0.37207 v -0.87643 z" />
        <path
           inkscape:connector-curvature="0"
           id="path4736"
           style="font-size:5.64444447px;fill:#0000ff;stroke-width:0.26458335"
           d="m 337.32629,250.61306 v 0.47956 q -0.21498,-0.11024 -0.44649,-0.16537 -0.23151,-0.0551 -0.47955,-0.0551 -0.37759,0 -0.56776,0.11576 -0.18741,0.11575 -0.18741,0.34726 0,0.17639 0.13505,0.27837 0.13505,0.0992 0.54295,0.19017 l 0.17363,0.0386 q 0.54019,0.11576 0.76619,0.32798 0.22875,0.20946 0.22875,0.58704 0,0.42995 -0.34175,0.68075 -0.339,0.2508 -0.93431,0.2508 -0.24805,0 -0.51814,-0.0496 -0.26734,-0.0469 -0.565,-0.14331 v -0.52366 q 0.28112,0.14608 0.55397,0.22049 0.27285,0.0717 0.54019,0.0717 0.35829,0 0.55122,-0.12127 0.19292,-0.12402 0.19292,-0.34727 0,-0.2067 -0.14056,-0.31694 -0.1378,-0.11025 -0.60909,-0.21222 l -0.17639,-0.0413 q -0.47129,-0.0992 -0.68075,-0.30317 -0.20946,-0.20671 -0.20946,-0.565 0,-0.43546 0.30868,-0.67248 0.30868,-0.23702 0.87643,-0.23702 0.28112,0 0.52917,0.0413 0.24805,0.0413 0.45751,0.12402 z" />
      </g>
      <g
         transform="rotate(89.827035,258.90667,-10.422268)"
         id="g4668">
        <circle
           style="fill:none;fill-opacity:1;stroke:#040000;stroke-width:0.01753878;stroke-miterlimit:4;stroke-dasharray:none;stroke-opacity:1"
           id="path4634-2"
           cx="417.67545"
           cy="198.21188"
           r="3.4912305" />
        <circle
           style="fill:none;fill-opacity:1;stroke:#040000;stroke-width:0.01753878;stroke-miterlimit:4;stroke-dasharray:none;stroke-opacity:1"
           id="path4634-2-5"
           cx="417.67545"
           cy="224.77847"
           r="3.4912302" />
      </g>
    </g>
    <g
       id="g6977"
       transform="rotate(-89.826381,90.268019,206.95835)">
      <ellipse
         ry="7.9740443"
         rx="7.9740448"
         transform="rotate(89.827035)"
         cy="-99.422951"
         cx="191.30101"
         id="path4619"
         style="fill:none;fill-opacity:1;stroke:#040000;stroke-width:0.05190954;stroke-miterlimit:4;stroke-dasharray:none;stroke-opacity:1" />
      <ellipse
         ry="7.9740443"
         rx="7.9740448"
         transform="rotate(89.827035)"
         cy="-99.338425"
         cx="219.30089"
         id="path4619-6"
         style="fill:none;fill-opacity:1;stroke:#040000;stroke-width:0.05190954;stroke-miterlimit:4;stroke-dasharray:none;stroke-opacity:1" />
      <ellipse
         ry="7.9740443"
         rx="7.9740448"
         transform="rotate(89.827035)"
         cy="-127.42283"
         cx="191.38554"
         id="path4619-4"
         style="fill:none;fill-opacity:1;stroke:#040000;stroke-width:0.05190954;stroke-miterlimit:4;stroke-dasharray:none;stroke-opacity:1" />
      <ellipse
         ry="7.9740443"
         rx="7.9740448"
         transform="rotate(89.827035)"
         cy="-127.33829"
         cx="219.38541"
         id="path4619-6-8"
         style="fill:none;fill-opacity:1;stroke:#040000;stroke-width:0.05190954;stroke-miterlimit:4;stroke-dasharray:none;stroke-opacity:1" />
    </g>
  </g>
</svg>
